<?xml version="1.0" encoding="UTF-8" standalone="no"?>
<!DOCTYPE svg PUBLIC "-//W3C//DTD SVG 1.1//EN" "http://www.w3.org/Graphics/SVG/1.1/DTD/svg11.dtd">
<svg version="1.1" xmlns="http://www.w3.org/2000/svg" xmlns:xlink="http://www.w3.org/1999/xlink" preserveAspectRatio="xMidYMid meet" viewBox="0 0 561 425" width="561" height="425"><defs><path d="M420.75 191.9L280.5 255.86L280.5 0L420.75 63.96L561 127.93L561 127.93L420.75 191.9ZM0 127.93L140.25 63.96L280.5 0L280.5 255.86L140.25 191.9L140.25 191.9L0 127.93Z" id="c2DJzbub6"></path><path d="M444.58 351.01L362.54 388.39L280.5 425.78L280.5 276.24L301.01 285.59L280.5 276.24L362.54 238.86L444.58 201.48L444.58 351.01L444.58 351.01ZM280.5 276.24L259.99 285.59L280.5 276.24L280.5 425.78L198.46 388.39L116.42 351.01L116.42 351.01L116.42 201.48L198.46 238.86L280.5 276.24Z" id="aTXA1mn"></path><path d="M272.89 335.99L271.77 335.38L270.7 334.69L269.68 333.92L268.72 333.09L267.83 332.19L267 331.22L266.24 330.19L265.56 329.11L264.96 327.98L264.43 326.79L264 325.57L263.65 324.3L263.4 323L263.25 321.66L263.2 320.3L263.25 318.94L263.4 317.6L263.65 316.3L264 315.03L264.43 313.81L264.96 312.62L265.56 311.49L266.24 310.41L267 309.38L267.83 308.42L268.72 307.51L269.68 306.68L270.7 305.91L271.77 305.22L272.89 304.61L274.06 304.09L275.28 303.65L276.53 303.3L277.83 303.05L279.15 302.89L280.5 302.84L281.85 302.89L283.17 303.05L284.47 303.3L285.72 303.65L286.94 304.09L288.11 304.61L289.23 305.22L290.3 305.91L291.32 306.68L292.28 307.51L293.17 308.42L294 309.38L294.76 310.41L295.44 311.49L296.04 312.62L296.57 313.81L297 315.03L297.35 316.3L297.6 317.6L297.75 318.94L297.8 320.3L297.75 321.66L297.6 323L297.35 324.3L297 325.57L296.57 326.79L296.04 327.98L295.44 329.11L294.76 330.19L294 331.22L293.17 332.19L292.28 333.09L291.32 333.92L290.3 334.69L289.23 335.38L288.11 335.99L287.04 336.47L298.5 368.8L262.5 368.8L273.96 336.47L272.89 335.99Z" id="b3ZFd9zcLv"></path></defs><g><g><g><use xlink:href="#c2DJzbub6" opacity="1" fill="#2b6cb0" fill-opacity="1"></use></g><g><use xlink:href="#aTXA1mn" opacity="1" fill="#2b6cb0" fill-opacity="1"></use></g><g><use xlink:href="#b3ZFd9zcLv" opacity="1" fill="#ffffff" fill-opacity="1"></use></g></g></g></svg>