<?xml version="1.0" encoding="utf-8"?>
<svg xmlns="http://www.w3.org/2000/svg" xmlns:xlink="http://www.w3.org/1999/xlink" style="margin: auto; none repeat scroll 0% 0%; display: block; shape-rendering: crispedges;" width="171px" height="171px" viewBox="0 0 100 100" preserveAspectRatio="xMidYMid">
<g transform="rotate(0 50 50)">
  <rect x="46.5" y="8.5" rx="3" ry="3" width="7" height="15" fill="#2b6cb0">
    <animate attributeName="opacity" values="1;0" keyTimes="0;1" dur="0.7246376811594202s" begin="-0.6728778467908902s" repeatCount="indefinite"></animate>
  </rect>
</g><g transform="rotate(25.714285714285715 50 50)">
  <rect x="46.5" y="8.5" rx="3" ry="3" width="7" height="15" fill="#2b6cb0">
    <animate attributeName="opacity" values="1;0" keyTimes="0;1" dur="0.7246376811594202s" begin="-0.6211180124223602s" repeatCount="indefinite"></animate>
  </rect>
</g><g transform="rotate(51.42857142857143 50 50)">
  <rect x="46.5" y="8.5" rx="3" ry="3" width="7" height="15" fill="#2b6cb0">
    <animate attributeName="opacity" values="1;0" keyTimes="0;1" dur="0.7246376811594202s" begin="-0.5693581780538303s" repeatCount="indefinite"></animate>
  </rect>
</g><g transform="rotate(77.14285714285714 50 50)">
  <rect x="46.5" y="8.5" rx="3" ry="3" width="7" height="15" fill="#2b6cb0">
    <animate attributeName="opacity" values="1;0" keyTimes="0;1" dur="0.7246376811594202s" begin="-0.5175983436853002s" repeatCount="indefinite"></animate>
  </rect>
</g><g transform="rotate(102.85714285714286 50 50)">
  <rect x="46.5" y="8.5" rx="3" ry="3" width="7" height="15" fill="#2b6cb0">
    <animate attributeName="opacity" values="1;0" keyTimes="0;1" dur="0.7246376811594202s" begin="-0.4658385093167702s" repeatCount="indefinite"></animate>
  </rect>
</g><g transform="rotate(128.57142857142858 50 50)">
  <rect x="46.5" y="8.5" rx="3" ry="3" width="7" height="15" fill="#2b6cb0">
    <animate attributeName="opacity" values="1;0" keyTimes="0;1" dur="0.7246376811594202s" begin="-0.41407867494824013s" repeatCount="indefinite"></animate>
  </rect>
</g><g transform="rotate(154.28571428571428 50 50)">
  <rect x="46.5" y="8.5" rx="3" ry="3" width="7" height="15" fill="#2b6cb0">
    <animate attributeName="opacity" values="1;0" keyTimes="0;1" dur="0.7246376811594202s" begin="-0.36231884057971014s" repeatCount="indefinite"></animate>
  </rect>
</g><g transform="rotate(180 50 50)">
  <rect x="46.5" y="8.5" rx="3" ry="3" width="7" height="15" fill="#2b6cb0">
    <animate attributeName="opacity" values="1;0" keyTimes="0;1" dur="0.7246376811594202s" begin="-0.3105590062111801s" repeatCount="indefinite"></animate>
  </rect>
</g><g transform="rotate(205.71428571428572 50 50)">
  <rect x="46.5" y="8.5" rx="3" ry="3" width="7" height="15" fill="#2b6cb0">
    <animate attributeName="opacity" values="1;0" keyTimes="0;1" dur="0.7246376811594202s" begin="-0.2587991718426501s" repeatCount="indefinite"></animate>
  </rect>
</g><g transform="rotate(231.42857142857142 50 50)">
  <rect x="46.5" y="8.5" rx="3" ry="3" width="7" height="15" fill="#2b6cb0">
    <animate attributeName="opacity" values="1;0" keyTimes="0;1" dur="0.7246376811594202s" begin="-0.20703933747412007s" repeatCount="indefinite"></animate>
  </rect>
</g><g transform="rotate(257.14285714285717 50 50)">
  <rect x="46.5" y="8.5" rx="3" ry="3" width="7" height="15" fill="#2b6cb0">
    <animate attributeName="opacity" values="1;0" keyTimes="0;1" dur="0.7246376811594202s" begin="-0.15527950310559005s" repeatCount="indefinite"></animate>
  </rect>
</g><g transform="rotate(282.85714285714283 50 50)">
  <rect x="46.5" y="8.5" rx="3" ry="3" width="7" height="15" fill="#2b6cb0">
    <animate attributeName="opacity" values="1;0" keyTimes="0;1" dur="0.7246376811594202s" begin="-0.10351966873706003s" repeatCount="indefinite"></animate>
  </rect>
</g><g transform="rotate(308.57142857142856 50 50)">
  <rect x="46.5" y="8.5" rx="3" ry="3" width="7" height="15" fill="#2b6cb0">
    <animate attributeName="opacity" values="1;0" keyTimes="0;1" dur="0.7246376811594202s" begin="-0.05175983436853002s" repeatCount="indefinite"></animate>
  </rect>
</g><g transform="rotate(334.2857142857143 50 50)">
  <rect x="46.5" y="8.5" rx="3" ry="3" width="7" height="15" fill="#2b6cb0">
    <animate attributeName="opacity" values="1;0" keyTimes="0;1" dur="0.7246376811594202s" begin="0s" repeatCount="indefinite"></animate>
  </rect>
</g>
<!-- [ldio] generated by https://loading.io/ --></svg>